<svg xmlns="http://www.w3.org/2000/svg" xmlns:xlink="http://www.w3.org/1999/xlink" width="1080" zoomAndPan="magnify" viewBox="0 0 810 809.999993" height="1080" preserveAspectRatio="xMidYMid meet" version="1.0"><defs><clipPath id="11deb920bf"><path d="M 179 171 L 769 171 L 769 668 L 179 668 Z M 179 171 " clip-rule="nonzero"/></clipPath><clipPath id="f3517a6228"><path d="M 253.042969 122.199219 L 809.734375 202.804688 L 732.570312 735.746094 L 175.878906 655.144531 Z M 253.042969 122.199219 " clip-rule="nonzero"/></clipPath><clipPath id="43b22bc493"><path d="M 253.042969 122.199219 L 809.734375 202.804688 L 732.570312 735.746094 L 175.878906 655.144531 Z M 253.042969 122.199219 " clip-rule="nonzero"/></clipPath><clipPath id="16f1138e1b"><path d="M 100 74.566406 L 336 74.566406 L 336 434 L 100 434 Z M 100 74.566406 " clip-rule="nonzero"/></clipPath><clipPath id="a8175894d0"><path d="M 0 74.566406 L 436.5 74.566406 L 436.5 550 L 0 550 Z M 0 74.566406 " clip-rule="nonzero"/></clipPath></defs><g clip-path="url(#11deb920bf)"><g clip-path="url(#f3517a6228)"><g clip-path="url(#43b22bc493)"><path fill="#8c52ff" d="M 601.339844 208.863281 C 603.34375 195.039062 599.027344 187.359375 588.527344 185.835938 C 566.597656 182.664062 531.164062 197.75 482.746094 231.316406 C 434.058594 264.839844 408.40625 292.066406 405.367188 313.066406 C 403.5 325.957031 407.636719 337.683594 418.308594 348.320312 C 428.714844 358.921875 441.972656 368.574219 458.042969 377.550781 C 474.132812 386.394531 489.820312 396.128906 505.507812 406.8125 C 520.949219 417.328125 533.515625 431.765625 542.824219 449.941406 C 552.132812 468.117188 555.171875 489.316406 551.707031 513.242188 C 550.800781 519.488281 549.921875 523.703125 549.175781 526.039062 C 652.828125 511.191406 723.28125 496.964844 760.53125 483.363281 C 763.535156 482.304688 765.492188 481.910156 765.757812 481.949219 C 768.015625 482.273438 769.117188 484.0625 768.632812 487.386719 C 768.269531 489.910156 766.421875 491.40625 762.890625 492.386719 C 729.171875 505.011719 656.855469 519.917969 545.414062 537.027344 C 528.222656 577.960938 490.457031 611.984375 431.890625 638.785156 C 373.324219 665.585938 305.808594 673.589844 229.25 662.503906 C 193.761719 657.367188 177.179688 647.230469 179.414062 631.8125 C 180.722656 622.773438 185.636719 614.121094 194.390625 606.160156 C 203.140625 598.203125 216.261719 591.007812 233.765625 584.453125 C 251.402344 577.914062 268.507812 572.25 285.761719 567.417969 C 302.730469 562.683594 325.722656 557.597656 354.5625 552.410156 C 383.386719 547.355469 407.589844 543.261719 427.441406 540.167969 C 447.277344 537.203125 473.742188 533.433594 507.101562 528.902344 C 513.144531 517.15625 517.023438 505.371094 518.65625 494.074219 C 521.351562 475.464844 517.886719 459.085938 508.226562 445.203125 C 498.433594 431.300781 485.941406 420.128906 470.34375 411.628906 C 454.765625 402.996094 439.171875 394.496094 423.59375 385.863281 C 408.019531 377.226562 395.199219 366.417969 385.519531 353.617188 C 375.570312 340.777344 372.046875 325.746094 374.550781 308.46875 C 377.1875 290.257812 392.097656 269.757812 419.320312 246.691406 C 446.503906 223.894531 477.363281 204.753906 512.109375 189.699219 C 546.859375 174.648438 574.582031 168.753906 595.714844 171.816406 C 620.167969 175.355469 630.300781 191.613281 626.066406 220.855469 C 624.96875 228.429688 620.902344 238.699219 613.929688 251.257812 C 607.066406 263.972656 599.59375 269.671875 592.015625 268.578125 C 588.164062 268.019531 585.164062 266.226562 582.890625 263.183594 C 580.617188 260.140625 579.730469 256.890625 580.308594 252.90625 C 580.519531 251.441406 583.929688 245.695312 590.539062 235.660156 C 596.125 226.15625 600.148438 217.101562 601.339844 208.863281 Z M 500.734375 540.058594 C 457.914062 546.207031 422.386719 551.648438 394.800781 556.609375 C 366.929688 561.664062 337.953125 567.785156 307.628906 574.792969 C 277.300781 581.800781 254.265625 590 238.601562 598.859375 C 223.046875 607.867188 214.3125 617.59375 212.789062 628.09375 C 211.117188 639.660156 226.789062 647.628906 259.75 652.398438 C 309.859375 659.65625 357.414062 651.75 402.054688 628.359375 C 446.292969 604.910156 479.320312 575.496094 500.734375 540.058594 Z M 500.734375 540.058594 " fill-opacity="1" fill-rule="nonzero"/></g></g></g><g clip-path="url(#16f1138e1b)"><path fill="#8c52ff" d="M 108.757812 96.160156 L 111.9375 106.863281 L 115.15625 117.550781 C 117.289062 124.683594 119.480469 131.789062 121.644531 138.914062 L 128.21875 160.242188 C 137.035156 188.667969 146.058594 217.019531 155.1875 245.335938 L 162.0625 266.566406 L 169.007812 287.769531 C 173.617188 301.910156 178.339844 316.015625 183.011719 330.140625 C 192.402344 358.367188 201.925781 386.550781 211.554688 414.695312 L 218.113281 433.867188 L 224.664062 414.695312 C 234.28125 386.546875 243.804688 358.363281 253.191406 330.132812 C 257.871094 316.011719 262.582031 301.90625 267.191406 287.765625 L 274.136719 266.558594 L 281.011719 245.328125 C 290.144531 217.015625 299.164062 188.660156 307.984375 160.238281 L 314.558594 138.90625 C 316.722656 131.785156 318.917969 124.679688 321.054688 117.546875 L 324.273438 106.859375 L 327.457031 96.160156 C 329.558594 89.042969 331.652344 81.925781 333.691406 74.792969 L 335.839844 74.683594 L 333.605469 74.570312 L 333.53125 74.5625 L 333.5 74.644531 C 330.730469 81.558594 328.019531 88.492188 325.316406 95.425781 L 321.28125 105.835938 L 317.28125 116.261719 C 314.609375 123.203125 311.988281 130.167969 309.339844 137.121094 L 301.476562 158.011719 C 291.046875 185.886719 280.820312 213.824219 270.703125 241.804688 L 263.140625 262.796875 L 255.644531 283.816406 C 250.632812 297.820312 245.71875 311.859375 240.773438 325.886719 C 233.144531 347.601562 225.597656 369.339844 218.113281 391.101562 C 210.628906 369.335938 203.085938 347.597656 195.460938 325.882812 C 190.503906 311.855469 185.605469 297.8125 180.585938 283.808594 L 173.097656 262.792969 L 165.535156 241.800781 C 155.417969 213.816406 145.1875 185.875 134.757812 158.007812 L 126.894531 137.117188 C 124.246094 130.164062 121.625 123.199219 118.945312 116.257812 L 114.941406 105.835938 L 110.90625 95.425781 C 108.199219 88.492188 105.492188 81.558594 102.722656 74.644531 L 102.6875 74.5625 L 102.613281 74.566406 L 100.378906 74.683594 L 102.523438 74.792969 C 104.5625 81.929688 106.65625 89.042969 108.757812 96.160156 " fill-opacity="1" fill-rule="nonzero"/></g><g clip-path="url(#a8175894d0)"><path fill="#8c52ff" d="M 413.5625 132.632812 L 402.414062 161.660156 L 391.339844 190.714844 L 385.816406 205.246094 L 380.328125 219.789062 L 369.371094 248.886719 L 358.457031 278 L 347.613281 307.136719 L 336.804688 336.289062 L 326.023438 365.449219 L 304.628906 423.828125 L 283.375 482.257812 L 263.917969 536.171875 L 218.109375 536.125 L 172.292969 536.179688 L 152.832031 482.261719 L 131.578125 423.832031 L 110.171875 365.457031 L 99.398438 336.296875 L 94.011719 321.714844 L 88.589844 307.144531 L 77.746094 278.007812 L 66.832031 248.894531 L 55.875 219.796875 L 44.863281 190.71875 L 39.34375 176.1875 L 33.789062 161.664062 L 22.648438 132.632812 C 15.183594 113.292969 7.691406 93.960938 0.0585938 74.683594 C 6.375 94.433594 12.832031 114.132812 19.320312 133.824219 L 29.101562 163.339844 L 34.011719 178.089844 L 38.957031 192.832031 L 48.871094 222.300781 L 58.839844 251.753906 L 68.855469 281.183594 L 78.9375 310.59375 L 83.980469 325.296875 L 89.054688 339.988281 L 99.210938 369.375 L 119.65625 428.09375 L 140.253906 486.757812 L 160.996094 545.371094 L 162.609375 549.925781 L 167.46875 549.929688 L 218.109375 549.984375 L 268.75 549.933594 L 273.613281 549.929688 L 275.226562 545.371094 L 295.976562 486.761719 L 316.578125 428.097656 L 337.03125 369.382812 L 347.179688 339.996094 L 357.300781 310.597656 L 367.382812 281.1875 L 377.398438 251.753906 L 387.367188 222.304688 L 392.335938 207.578125 L 397.277344 192.835938 L 407.128906 163.34375 L 416.910156 133.828125 C 423.394531 114.136719 429.851562 94.433594 436.160156 74.683594 C 428.523438 93.960938 421.023438 113.289062 413.5625 132.632812 " fill-opacity="1" fill-rule="nonzero"/></g></svg>