<svg xmlns="http://www.w3.org/2000/svg" xmlns:xlink="http://www.w3.org/1999/xlink" width="1080" zoomAndPan="magnify" viewBox="0 0 810 809.999993" height="1080" preserveAspectRatio="xMidYMid meet" version="1.0"><defs><clipPath id="6af3657076"><path d="M 179 178 L 769 178 L 769 675 L 179 675 Z M 179 178 " clip-rule="nonzero"/></clipPath><clipPath id="c4842ee800"><path d="M 253.042969 129.183594 L 809.734375 209.785156 L 732.570312 742.730469 L 175.878906 662.125 Z M 253.042969 129.183594 " clip-rule="nonzero"/></clipPath><clipPath id="fc86eca5bc"><path d="M 253.042969 129.183594 L 809.734375 209.785156 L 732.570312 742.730469 L 175.878906 662.125 Z M 253.042969 129.183594 " clip-rule="nonzero"/></clipPath><clipPath id="ae7f5c8924"><path d="M 100 81.550781 L 336 81.550781 L 336 441 L 100 441 Z M 100 81.550781 " clip-rule="nonzero"/></clipPath><clipPath id="eed67ef929"><path d="M 0 81.550781 L 436.5 81.550781 L 436.5 557 L 0 557 Z M 0 81.550781 " clip-rule="nonzero"/></clipPath></defs><rect x="-81" width="972" fill="#ffffff" y="-80.999999" height="971.999992" fill-opacity="1"/><rect x="-81" width="972" fill="#ffffff" y="-80.999999" height="971.999992" fill-opacity="1"/><g clip-path="url(#6af3657076)"><g clip-path="url(#c4842ee800)"><g clip-path="url(#fc86eca5bc)"><path fill="#8c52ff" d="M 601.339844 215.84375 C 603.34375 202.023438 599.027344 194.339844 588.527344 192.820312 C 566.597656 189.644531 531.164062 204.734375 482.746094 238.296875 C 434.058594 271.824219 408.40625 299.046875 405.367188 320.046875 C 403.5 332.941406 407.636719 344.667969 418.308594 355.304688 C 428.714844 365.902344 441.972656 375.558594 458.042969 384.535156 C 474.132812 393.375 489.820312 403.113281 505.507812 413.796875 C 520.949219 424.308594 533.515625 438.75 542.824219 456.921875 C 552.132812 475.097656 555.171875 496.300781 551.707031 520.222656 C 550.800781 526.472656 549.921875 530.6875 549.175781 533.019531 C 652.828125 518.175781 723.28125 503.949219 760.53125 490.34375 C 763.535156 489.289062 765.492188 488.890625 765.757812 488.929688 C 768.015625 489.257812 769.117188 491.046875 768.632812 494.367188 C 768.269531 496.894531 766.421875 498.390625 762.890625 499.371094 C 729.171875 511.996094 656.855469 526.898438 545.414062 544.011719 C 528.222656 584.945312 490.457031 618.964844 431.890625 645.769531 C 373.324219 672.570312 305.808594 680.570312 229.25 669.488281 C 193.761719 664.347656 177.179688 654.210938 179.414062 638.792969 C 180.722656 629.757812 185.636719 621.105469 194.390625 613.144531 C 203.140625 605.183594 216.261719 597.992188 233.765625 591.433594 C 251.402344 584.894531 268.507812 579.230469 285.761719 574.402344 C 302.730469 569.667969 325.722656 564.582031 354.5625 559.394531 C 383.386719 554.339844 407.589844 550.246094 427.441406 547.148438 C 447.277344 544.1875 473.742188 540.417969 507.101562 535.886719 C 513.144531 524.140625 517.023438 512.351562 518.65625 501.054688 C 521.351562 482.449219 517.886719 466.070312 508.226562 452.1875 C 498.433594 438.285156 485.941406 427.109375 470.34375 418.609375 C 454.765625 409.976562 439.171875 401.476562 423.59375 392.84375 C 408.019531 384.210938 395.199219 373.398438 385.519531 360.597656 C 375.570312 347.757812 372.046875 332.730469 374.550781 315.449219 C 377.1875 297.242188 392.097656 276.738281 419.320312 253.675781 C 446.503906 230.878906 477.363281 211.734375 512.109375 196.683594 C 546.859375 181.628906 574.582031 175.738281 595.714844 178.796875 C 620.167969 182.339844 630.300781 198.597656 626.066406 227.839844 C 624.96875 235.414062 620.902344 245.679688 613.929688 258.242188 C 607.066406 270.953125 599.59375 276.65625 592.015625 275.558594 C 588.164062 275 585.164062 273.210938 582.890625 270.167969 C 580.617188 267.125 579.730469 263.875 580.308594 259.886719 C 580.519531 258.425781 583.929688 252.675781 590.539062 242.640625 C 596.125 233.136719 600.148438 224.085938 601.339844 215.84375 Z M 500.734375 547.039062 C 457.914062 553.1875 422.386719 558.628906 394.800781 563.59375 C 366.929688 568.648438 337.953125 574.765625 307.628906 581.773438 C 277.300781 588.78125 254.265625 596.980469 238.601562 605.839844 C 223.046875 614.851562 214.3125 624.578125 212.789062 635.078125 C 211.117188 646.640625 226.789062 654.609375 259.75 659.382812 C 309.859375 666.636719 357.414062 658.730469 402.054688 635.339844 C 446.292969 611.894531 479.320312 582.480469 500.734375 547.039062 Z M 500.734375 547.039062 " fill-opacity="1" fill-rule="nonzero"/></g></g></g><g clip-path="url(#ae7f5c8924)"><path fill="#8c52ff" d="M 108.757812 103.144531 L 111.9375 113.847656 L 115.15625 124.535156 C 117.289062 131.664062 119.480469 138.773438 121.644531 145.894531 L 128.21875 167.222656 C 137.035156 195.648438 146.058594 224.003906 155.1875 252.320312 L 162.0625 273.550781 L 169.007812 294.75 C 173.617188 308.894531 178.339844 323 183.011719 337.121094 C 192.402344 365.347656 201.925781 393.53125 211.554688 421.679688 L 218.113281 440.851562 L 224.664062 421.679688 C 234.28125 393.527344 243.804688 365.34375 253.191406 337.113281 C 257.871094 322.996094 262.582031 308.886719 267.191406 294.746094 L 274.136719 273.542969 L 281.011719 252.3125 C 290.144531 223.996094 299.164062 195.644531 307.984375 167.222656 L 314.558594 145.890625 C 316.722656 138.769531 318.917969 131.660156 321.054688 124.53125 L 324.273438 113.84375 L 327.457031 103.140625 C 329.558594 96.027344 331.652344 88.910156 333.691406 81.773438 L 335.839844 81.667969 L 333.605469 81.554688 L 333.53125 81.546875 L 333.5 81.628906 C 330.730469 88.542969 328.019531 95.476562 325.316406 102.410156 L 321.28125 112.820312 L 317.28125 123.242188 C 314.609375 130.1875 311.988281 137.152344 309.339844 144.105469 L 301.476562 164.996094 C 291.046875 192.871094 280.820312 220.808594 270.703125 248.785156 L 263.140625 269.78125 L 255.644531 290.800781 C 250.632812 304.800781 245.71875 318.84375 240.773438 332.871094 C 233.144531 354.582031 225.597656 376.324219 218.113281 398.085938 C 210.628906 376.320312 203.085938 354.578125 195.460938 332.867188 C 190.503906 318.839844 185.605469 304.796875 180.585938 290.792969 L 173.097656 269.773438 L 165.535156 248.78125 C 155.417969 220.800781 145.1875 192.859375 134.757812 164.988281 L 126.894531 144.101562 C 124.246094 137.148438 121.625 130.183594 118.945312 123.238281 L 114.941406 112.816406 L 110.90625 102.410156 C 108.199219 95.476562 105.492188 88.542969 102.722656 81.628906 L 102.6875 81.546875 L 102.613281 81.550781 L 100.378906 81.667969 L 102.523438 81.773438 C 104.5625 88.914062 106.65625 96.027344 108.757812 103.144531 " fill-opacity="1" fill-rule="nonzero"/></g><g clip-path="url(#eed67ef929)"><path fill="#8c52ff" d="M 413.5625 139.613281 L 402.414062 168.640625 L 391.339844 197.699219 L 385.816406 212.230469 L 380.328125 226.773438 L 369.371094 255.871094 L 358.457031 284.984375 L 347.613281 314.121094 L 336.804688 343.269531 L 326.023438 372.433594 L 304.628906 430.808594 L 283.375 489.242188 L 263.917969 543.152344 L 218.109375 543.109375 L 172.292969 543.160156 L 152.832031 489.242188 L 131.578125 430.816406 L 110.171875 372.4375 L 99.398438 343.277344 L 94.011719 328.695312 L 88.589844 314.128906 L 77.746094 284.988281 L 66.832031 255.875 L 55.875 226.78125 L 44.863281 197.699219 L 39.34375 183.167969 L 33.789062 168.644531 L 22.648438 139.617188 C 15.183594 120.273438 7.691406 100.945312 0.0585938 81.667969 C 6.375 101.417969 12.832031 121.117188 19.320312 140.804688 L 29.101562 170.320312 L 34.011719 185.074219 L 38.957031 199.8125 L 48.871094 229.285156 L 58.839844 258.734375 L 68.855469 288.164062 L 78.9375 317.574219 L 83.980469 332.28125 L 89.054688 346.972656 L 99.210938 376.355469 L 119.65625 435.074219 L 140.253906 493.742188 L 160.996094 552.351562 L 162.609375 556.90625 L 167.46875 556.910156 L 218.109375 556.964844 L 268.75 556.917969 L 273.613281 556.910156 L 275.226562 552.351562 L 295.976562 493.746094 L 316.578125 435.082031 L 337.03125 376.363281 L 347.179688 346.976562 L 357.300781 317.582031 L 367.382812 288.171875 L 377.398438 258.738281 L 387.367188 229.289062 L 392.335938 214.558594 L 397.277344 199.820312 L 407.128906 170.328125 L 416.910156 140.808594 C 423.394531 121.121094 429.851562 101.417969 436.160156 81.667969 C 428.523438 100.945312 421.023438 120.273438 413.5625 139.613281 " fill-opacity="1" fill-rule="nonzero"/></g></svg>